PathFileType	4	(X/Y/Z)	RBDS026\RBDS026runT25.trc
DataRate	CameraRate	NumFrames	NumMarkers	Units	OrigDataRate	OrigDataStartFrame	OrigNumFrames
150.000000	150.000000	4	33	mm	150.000000	3375	4500
Frame#	Time	L.ASIS			L.Heel.Bottom			L.Heel.Lateral			L.Heel.Top			L.Iliac.Crest			L.MT1			L.MT5			L.PSIS			L.Shank.Bottom.Lateral			L.Shank.Bottom.Medial			L.Shank.Top.Lateral			L.Shank.Top.Medial			L.Thigh.Bottom.Lateral			L.Thigh.Bottom.Medial			L.Thigh.Top.Lateral			L.Thigh.Top.Medial			R.ASIS			R.ASY			R.Heel.Bottom			R.Heel.Lateral			R.Heel.Top			R.Iliac.Crest			R.MT1			R.MT5			R.PSIS			R.Shank.Bottom.Lateral			R.Shank.Bottom.Medial			R.Shank.Top.Lateral			R.Shank.Top.Medial			R.Thigh.Bottom.Lateral			R.Thigh.Bottom.Medial			R.Thigh.Top.Lateral			R.Thigh.Top.Medial			
		X1	Y1	Z1	X2	Y2	Z2	X3	Y3	Z3	X4	Y4	Z4	X5	Y5	Z5	X6	Y6	Z6	X7	Y7	Z7	X8	Y8	Z8	X9	Y9	Z9	X10	Y10	Z10	X11	Y11	Z11	X12	Y12	Z12	X13	Y13	Z13	X14	Y14	Z14	X15	Y15	Z15	X16	Y16	Z16	X17	Y17	Z17	X18	Y18	Z18	X19	Y19	Z19	X20	Y20	Z20	X21	Y21	Z21	X22	Y22	Z22	X23	Y23	Z23	X24	Y24	Z24	X25	Y25	Z25	X26	Y26	Z26	X27	Y27	Z27	X28	Y28	Z28	X29	Y29	Z29	X30	Y30	Z30	X31	Y31	Z31	X32	Y32	Z32	X33	Y33	Z33	

3376	22.5	2145.224967535881	1007.388592586317	900.1009229405753	1768.704643689688	47.30110081646261	1003.982307578984	1797.848227277277	65.85071862845227	952.9167090346756	1782.215836779217	93.73601168986234	1003.264941001891	2061.728380403556	1076.99583171356	861.214029303881	1996.15640112084	46.57143100438848	1009.512933806473	1941.564220817329	42.10815326309145	908.5011467532936	1975.405586330519	1055.684630940039	985.7319053478612	1892.608551552477	167.6216407497362	927.2822884179249	1853.728936416274	193.46534663324	947.9430518117352	1927.31482701664	235.0513624681297	898.7364999546959	1887.257500272467	264.9585919470289	917.340838913732	2052.400562886331	604.1732096402145	860.9539624627569	1993.610407737157	604.5875711113041	903.5649898041264	2040.643906421035	712.2683343869771	844.3668449508316	1987.376005110507	712.807342352571	889.4022462456297	2147.003666014186	1010.761995694731	1146.751267496465	1991.40588004571	156.9506251586177	1128.444736294432	1822.996678806125	236.959672646737	1086.355386872722	1855.417629560956	238.1471699895486	1135.143600149765	1860.147224235	264.2952107085677	1084.79530719516	2073.689190026734	1071.96237989299	1187.531710408859	1995.001992270357	93.00490290401373	1088.782480312681	1958.258050454474	122.6933072982448	1190.752251433984	1977.245150799418	1051.523022866294	1082.58987414916	1973.608369077264	286.5748960893063	1157.749933244824	1943.447216776113	319.5440849527158	1125.052257665659	2022.174056168142	350.1208230706875	1174.318482336096	1992.362167516676	380.6935327258217	1141.877268007622	2224.292775387335	613.5845527699346	1196.737986570298	2162.37692281018	589.4289501133013	1170.538183145131	2180.633560974502	713.8783369437269	1210.817505019131	2119.726737897009	689.3567065478436	1190.808503929824	
3377	22.50666666666667	2144.667797467601	1010.002215511954	899.8464069595173	1752.964951544203	52.92296307910021	1003.923138075935	1782.597065222	70.53290418076224	952.8261785831926	1767.40557974471	98.99654306294856	1002.962954194329	2063.517821306649	1080.828654988735	861.3470885008063	1979.447614769698	46.48644437329954	1009.930786394771	1924.95438433845	42.79640234964791	908.7248536330337	1975.881565857599	1060.574371607427	985.6382846705079	1877.504170764463	171.8149271919546	927.1849371433702	1838.920262788364	197.7384051288995	948.3279596573756	1912.353116639066	239.2210016626804	898.7714285241722	1872.545649548816	269.2100442970436	917.7928683358382	2041.744585289701	608.2186036768446	861.8543262818567	1983.535227235134	610.460739119931	905.1892642736182	2033.171935753363	716.6240338302265	845.4303248291998	1980.371408910689	718.8004050182441	891.0623366420097	2147.75346410176	1015.766088300308	1146.034537465978	2012.637514733403	151.7265998623322	1127.171366664747	1840.326001501898	222.3476319822113	1084.430412151718	1872.236141401315	225.2570124696549	1133.354102795116	1875.921255366428	251.7272846637709	1083.078977540039	2074.819867878014	1077.79183651115	1187.660002811628	2020.07028823855	88.28447492035302	1087.323231614651	1981.256074414465	115.5600159114947	1189.213250050635	1977.931109149811	1057.040501716877	1082.745051383224	1988.022914416879	280.031809026343	1156.331874344787	1956.343306676071	311.4485162168514	1123.52424801806	2033.261750249576	345.8908572609523	1173.143804198131	2001.968765037294	374.9834254625659	1140.66453696926	2227.956837235492	620.7886081642908	1196.722541984125	2165.976578136151	595.8812974420749	1171.612493258694	2183.642679599744	720.6744030631734	1210.961735043114	2122.706117540653	695.5322158611049	1191.800618027451	
3378	22.51333333333334	2144.258885664732	1012.733030399934	899.7880810813839	1737.684338975728	59.41719939203883	1003.974153115538	1767.835106762402	75.92528797458695	952.8222180301595	1753.219532510835	105.0441602544204	1002.742371757242	2065.581280588876	1084.858498416773	861.5847475239499	1962.882649270568	46.33012428285408	1010.303958684371	1908.507361263332	43.62126207365856	908.9065413007415	1976.486433093035	1065.613721524405	985.5779211490179	1862.833679136296	176.5333546058643	927.0596936951391	1824.611133730562	202.5160379120169	948.7832125402406	1897.77640681084	243.9251249374986	898.7521016182653	1858.289861506504	273.9695375238001	918.3108095341513	2031.554346436462	612.7139063303333	862.5778010955485	1973.890986468781	616.6789453220252	906.5154314755756	2026.071414039287	721.3586803973334	846.3633912449014	1973.722335684115	725.0597680600341	892.5138076501083	2148.612678869004	1021.067081001905	1145.362944188741	2034.238221933186	146.6537411185263	1125.966824035049	1858.606609742035	207.5288836161637	1082.247202691472	1889.86066301127	212.1574197346532	1131.362968489418	1892.503148432847	238.899163663417	1081.145190353203	2076.212066574178	1084.118569918568	1187.864759566886	2045.608625902897	83.89363165834023	1086.022818260273	2004.662020708908	108.6455933198964	1187.735603069785	1978.737955745479	1062.76850274374	1082.947814486316	2002.708946633474	273.3245108126899	1154.857828543845	1969.623664510286	303.0553495941833	1121.829839217648	2044.35694401224	341.4066167967361	1171.9218770599	2011.700464503603	368.9042921115217	1139.287746972678	2230.912689055687	627.8160501095838	1196.7057025618	2168.827759170591	602.3030242379917	1172.66295921913	2186.153607762759	727.3985987224537	1211.059678598196	2125.159130566345	701.7817915648286	1192.682325474548	
3379	22.52	2144.014277415538	1015.586968233987	899.9394424389459	1722.93524448184	66.73622997034434	1004.12684816047	1753.612531510343	81.98610569806624	952.8960636009277	1739.727025867471	111.8217667447859	1002.601969237825	2067.893478049567	1089.07168168896	861.9404859146871	1946.502495904251	46.10202233625014	1010.597873641847	1892.267010009573	44.58921541531254	909.0243971437088	1977.204772533263	1070.743143949191	985.5853137489914	1848.657909694251	181.7423125938445	926.893081589237	1810.874164648956	207.7618059488431	949.3049820488135	1883.646121098775	249.13132867784	898.6668046398518	1844.564076872995	279.2041909755147	918.8990113493616	2021.923835375975	617.6045436861277	863.077716458806	1964.752267833431	623.1683828231081	907.4852936556773	2019.396312366905	726.4204068646699	847.1222315809695	1967.467987647979	731.5159364034455	893.704855315772	2149.546992389904	1026.602269280704	1144.768470113427	2056.183630186076	141.8250135643432	1124.832002575661	1877.815086844385	192.6535154541204	1079.905790741746	1908.292237703924	198.9799732405889	1129.253196575807	1909.876737292184	225.9453034547872	1079.072500064617	2077.791614878723	1090.809150099919	1188.123956784447	2071.542966146489	79.93190998738143	1084.885953516633	2028.462868597986	102.0532610100697	1186.342533680458	1979.646288298318	1068.624072047886	1083.216836103624	2017.678552652157	266.5106646650078	1153.376631620432	1983.309272541941	294.4484160332485	1120.041250264269	2055.497446015265	336.6833104324277	1170.699241881448	2021.608274595825	362.497041275461	1137.812325733653	2233.111086724102	634.5337193122286	1196.663738000649	2170.880849808999	608.5741723282267	1173.632222748501	2188.111224260468	733.9244336246571	1211.089472318347	2127.033284393191	707.987675176186	1193.409045303609	
